<?xml version="1.0" standalone="no"?>
<!DOCTYPE svg PUBLIC "-//W3C//DTD SVG 20010904//EN"
 "http://www.w3.org/TR/2001/REC-SVG-20010904/DTD/svg10.dtd">
<svg version="1.0" xmlns="http://www.w3.org/2000/svg"
 width="607.000000pt" height="1080.000000pt" viewBox="0 0 607.000000 1080.000000"
 preserveAspectRatio="xMidYMid meet">
<metadata>
Created by potrace 1.16, written by Peter Selinger 2001-2019
</metadata>
<g transform="translate(0.000000,1080.000000) scale(0.100000,-0.100000)"
fill="#000000" stroke="none">
<path d="M0 9360 l0 -1440 1718 -2 1717 -3 55 -32 c30 -17 73 -50 95 -72 22
-22 52 -43 67 -46 15 -4 30 -10 33 -15 3 -5 24 -18 48 -29 23 -11 63 -40 89
-63 59 -54 70 -61 141 -83 32 -10 64 -26 71 -36 7 -10 30 -22 52 -28 46 -11
159 -57 194 -80 72 -45 107 -135 96 -246 -4 -36 -3 -65 2 -65 5 0 17 -21 27
-47 10 -27 26 -56 36 -66 18 -17 18 -15 14 75 -3 51 -3 105 1 121 6 27 47 57
79 57 17 0 125 -79 125 -92 0 -14 32 -38 53 -38 27 -1 119 -46 167 -81 19 -15
57 -35 85 -45 27 -10 68 -33 92 -51 24 -18 47 -33 52 -33 5 0 11 -4 13 -9 6
-16 81 -61 102 -61 20 0 20 1 -4 20 -45 37 -111 80 -121 80 -5 0 -9 4 -9 8 0
5 -16 16 -35 25 -19 9 -35 21 -35 27 0 5 -6 10 -14 10 -8 0 -16 6 -19 14 -3 8
-28 23 -56 33 -27 9 -69 34 -93 55 -24 21 -58 42 -77 47 -42 12 -171 89 -171
101 0 6 -6 10 -14 10 -16 0 -133 64 -159 87 -17 16 -46 34 -77 50 -8 4 -20 12
-26 18 -24 24 -120 85 -139 88 -33 6 -75 26 -108 51 -18 13 -43 27 -57 31 -34
10 -188 92 -227 121 -17 13 -34 24 -36 24 -2 0 -28 24 -58 53 -72 69 -109 97
-134 98 -11 1 -4 5 15 9 19 5 407 9 863 9 l827 1 18 -22 c9 -11 59 -62 110
-112 51 -50 107 -113 124 -141 17 -27 46 -67 65 -88 18 -21 41 -55 51 -75 9
-20 25 -46 35 -56 9 -11 17 -26 17 -33 0 -7 5 -13 10 -13 6 0 10 -5 10 -10 0
-6 21 -42 46 -81 26 -39 53 -89 61 -111 13 -38 38 -74 111 -158 17 -21 32 -41
32 -46 0 -5 27 -49 60 -98 l60 -89 0 441 c0 486 5 439 -60 547 -10 17 -28 53
-39 81 l-20 52 22 6 c12 3 39 6 60 6 l37 0 0 1440 0 1440 -3035 0 -3035 0 0
-1440z m5775 1280 l0 -55 -69 -3 c-49 -2 -72 1 -77 10 -11 16 -12 92 -2 102 4
4 39 5 78 4 l70 -3 0 -55z m-2895 -515 c0 -87 -3 -105 -15 -105 -8 0 -15 5
-15 10 0 6 -7 6 -18 -1 -50 -31 -102 26 -85 92 11 41 52 61 83 41 18 -11 20
-9 20 22 0 29 6 38 28 45 1 1 2 -46 2 -104z m2615 95 c3 -6 -4 -10 -17 -10
-45 0 -49 -10 -46 -116 l3 -99 115 0 115 0 0 105 0 105 -32 3 c-18 2 -33 7
-33 13 0 12 32 12 64 -1 26 -9 26 -11 26 -119 0 -134 3 -131 -140 -131 -142 0
-140 -2 -140 123 0 56 4 107 8 113 14 22 66 31 77 14z m-2936 -76 c12 -15 21
-37 21 -49 0 -38 -37 -75 -74 -75 -43 0 -68 28 -68 75 0 47 25 75 68 75 23 0
38 -7 53 -26z m739 14 c9 -9 12 -9 12 0 0 7 9 12 20 12 18 0 20 -7 20 -78 0
-95 -15 -122 -66 -122 -38 0 -74 15 -74 30 0 14 33 13 47 -1 16 -16 53 -1 53
21 0 17 -3 18 -25 8 -30 -14 -72 10 -77 44 -5 30 8 80 24 90 19 12 52 10 66
-4z m382 2 c0 -7 6 -7 19 0 31 16 59 12 75 -12 35 -50 9 -128 -43 -128 -15 0
-32 5 -38 11 -7 7 -10 4 -10 -13 -1 -42 -3 -48 -18 -48 -12 0 -15 18 -15 100
0 82 3 100 15 100 8 0 15 -5 15 -10z m252 -7 c23 -21 24 -89 1 -115 -22 -25
-75 -23 -98 2 -43 47 -11 130 48 130 17 0 39 -7 49 -17z"/>
<path d="M5280 6819 c0 -16 103 -104 124 -105 11 -1 29 -2 38 -3 10 0 35 -17
57 -36 41 -37 181 -115 207 -115 8 0 47 -21 87 -47 40 -26 99 -61 132 -77 33
-15 79 -42 103 -58 l42 -29 0 28 c-1 23 -11 35 -62 68 -34 22 -73 48 -87 57
-14 10 -42 24 -61 33 -19 8 -40 18 -46 22 -69 49 -117 76 -169 93 -35 12 -71
30 -80 40 -10 11 -24 20 -32 20 -7 0 -13 4 -13 8 0 9 -86 70 -128 92 -28 14
-112 21 -112 9z"/>
<path d="M3536 6638 c-37 -18 -107 -36 -166 -42 -14 -1 -43 -7 -65 -13 -128
-36 -175 -44 -219 -38 -49 8 -128 -14 -143 -39 -17 -27 -68 -56 -97 -56 -29 0
-48 -9 -139 -68 -19 -13 -40 -36 -46 -53 -5 -16 -14 -29 -19 -29 -19 0 -31
-50 -23 -95 5 -25 5 -45 0 -45 -5 0 -9 5 -9 11 0 6 -6 9 -12 7 -7 -3 -13 -15
-13 -29 0 -18 -8 -26 -32 -34 -36 -10 -39 -18 -18 -55 17 -29 20 -100 5 -100
-6 0 -15 -11 -22 -25 -8 -19 -8 -28 2 -40 8 -10 10 -29 6 -56 -5 -31 -3 -46
10 -60 12 -14 14 -27 8 -61 -9 -54 -6 -92 11 -125 9 -16 11 -44 8 -77 -4 -36
-1 -62 9 -82 9 -17 18 -75 22 -144 5 -79 13 -129 27 -159 10 -24 23 -69 28
-100 8 -50 22 -91 51 -156 21 -48 73 -222 72 -242 -4 -60 61 -149 103 -141 19
3 21 0 63 -93 17 -37 48 -93 69 -126 61 -91 61 -87 -14 -141 -89 -63 -203
-162 -345 -300 l-117 -114 -138 -35 c-76 -19 -156 -39 -178 -44 -140 -34 -248
-84 -417 -190 -144 -90 -196 -131 -284 -221 -77 -78 -221 -258 -234 -292 -4
-12 -29 -48 -55 -81 -51 -65 -75 -109 -95 -169 -7 -21 -30 -69 -51 -107 -22
-38 -39 -75 -39 -84 0 -8 -4 -15 -9 -15 -5 0 -11 -14 -15 -31 -3 -17 -28 -81
-55 -142 -63 -142 -156 -374 -178 -439 -5 -16 -23 -18 -182 -18 l-177 0 2 31
c1 18 8 35 15 40 9 5 10 11 2 21 -6 7 -11 30 -11 50 0 20 -3 41 -6 46 -8 14
16 41 41 45 11 2 28 9 37 16 18 15 22 51 6 51 -5 0 -9 3 -8 8 4 11 -26 72 -35
72 -4 0 -3 9 3 19 17 32 12 74 -15 127 -15 28 -25 66 -25 90 0 23 -5 66 -11
95 -6 30 -13 115 -14 189 -2 74 -8 162 -14 195 -16 93 -15 160 4 256 9 43 6
379 -4 459 -6 41 -12 95 -16 120 -3 25 -10 70 -16 100 -5 30 -11 65 -12 77 -1
12 -5 25 -9 29 -4 4 -3 13 2 20 14 16 17 138 6 239 -6 60 -4 90 6 120 l14 40
-51 50 c-36 35 -55 64 -64 95 -7 25 -17 54 -21 65 -5 11 -11 31 -14 45 -3 14
-15 61 -26 105 -12 44 -28 116 -35 160 -14 82 -25 130 -46 200 -19 64 -22 130
-9 202 14 87 36 118 72 104 14 -5 28 -16 31 -25 10 -26 80 -39 124 -21 21 8
49 16 62 18 35 5 52 33 40 66 -6 14 -12 60 -14 101 -2 41 -10 95 -18 120 -9
25 -17 54 -20 65 -3 18 -5 17 -15 -7 -12 -28 -35 -31 -94 -14 -16 5 -35 6 -43
2 -8 -3 -16 -4 -18 -3 -5 5 -67 -45 -67 -55 0 -6 -6 -19 -14 -27 -8 -9 -16
-41 -18 -71 -4 -63 -21 -78 -54 -46 -32 32 -47 77 -35 108 7 19 6 31 -4 44
-12 16 -14 -65 -15 -593 0 -538 2 -613 15 -613 8 0 15 -5 15 -10 0 -6 9 -20
20 -32 22 -24 26 -38 9 -38 -7 0 -8 -11 -4 -32 7 -28 10 -49 19 -128 2 -14 7
-41 11 -61 5 -28 3 -38 -9 -42 -31 -12 -6 -130 36 -165 l29 -24 -2 -114 c-3
-121 -10 -141 -49 -131 -13 3 -20 0 -20 -9 0 -15 -43 -29 -59 -19 -7 4 -11 -5
-11 -24 0 -16 5 -33 10 -36 6 -3 10 -18 10 -33 0 -15 6 -36 14 -47 16 -24 59
-148 76 -223 9 -40 9 -57 1 -65 -6 -6 -11 -19 -11 -28 0 -10 -5 -19 -12 -21
-16 -6 3 -37 33 -52 13 -7 23 -18 21 -25 -1 -7 3 -19 9 -27 9 -11 8 -18 -5
-33 -11 -12 -13 -20 -6 -23 7 -2 4 -13 -9 -30 -12 -14 -21 -31 -21 -37 0 -6
-4 -11 -9 -11 -5 0 2 -20 16 -45 23 -42 26 -84 4 -71 -5 3 -11 0 -14 -8 -6
-14 6 -104 18 -143 6 -19 2 -25 -21 -34 -17 -7 -24 -13 -16 -16 10 -4 10 -8 1
-20 -27 -32 -23 -121 10 -223 10 -32 9 -67 -5 -142 -4 -18 -10 -25 -20 -21 -9
3 -14 -1 -14 -13 0 -11 -14 -37 -30 -58 l-30 -40 0 -1063 0 -1063 3035 0 3035
0 0 1620 0 1621 -43 42 c-47 46 -206 162 -277 202 -165 93 -398 199 -635 287
-17 7 -139 121 -281 262 -269 269 -256 251 -269 371 -11 108 -14 183 -8 258 6
75 7 78 29 73 33 -9 52 2 70 40 21 44 11 104 -23 139 -14 14 -24 28 -20 31 3
3 -1 17 -8 31 -14 26 -12 43 4 43 4 0 13 -18 20 -40 12 -39 27 -57 39 -46 8 9
23 234 21 334 -2 133 -2 146 1 167 5 37 -21 200 -40 258 -11 32 -20 84 -20
118 0 59 -17 110 -70 211 -11 20 -20 43 -20 50 0 7 -11 30 -25 50 -14 20 -25
43 -25 50 0 7 -64 79 -143 160 -179 185 -243 224 -412 252 -32 5 -88 25 -120
42 -30 17 -152 26 -174 14 -15 -7 -23 -6 -35 5 -18 18 -21 18 -70 -7z m-213
-711 c14 3 28 0 31 -6 4 -6 13 -11 19 -11 8 0 8 3 -1 9 -7 4 20 7 64 5 44 -2
86 2 98 8 37 20 95 21 122 3 15 -9 36 -19 48 -21 55 -9 83 -18 105 -35 13 -11
30 -19 37 -19 8 0 14 -4 14 -10 0 -5 -4 -10 -10 -10 -16 0 -12 -46 5 -60 24
-20 38 0 25 34 -9 24 -8 27 7 24 12 -3 17 -12 15 -27 -1 -16 4 -24 18 -28 11
-3 20 -7 20 -10 0 -2 -19 -23 -42 -46 -38 -37 -40 -42 -23 -45 11 -2 25 -13
30 -25 6 -14 19 -22 35 -23 14 0 40 -14 59 -32 19 -17 38 -29 42 -26 15 9 20
-15 7 -36 -9 -14 -23 -20 -50 -20 -21 0 -58 -7 -84 -16 -25 -8 -56 -13 -68
-11 -33 8 -194 -36 -210 -58 -16 -22 -80 -23 -105 -2 -26 22 -51 28 -73 16
-15 -8 -27 -8 -45 0 -18 8 -30 8 -46 -1 -27 -14 -155 -12 -174 3 -18 16 -16
38 5 46 19 7 52 42 52 55 0 4 7 8 15 8 8 0 15 7 15 15 0 9 11 21 25 27 19 9
25 19 25 44 0 33 -15 45 -63 49 -18 2 -35 20 -38 40 -1 6 -2 23 -3 38 0 15 -6
31 -12 35 -12 8 -38 52 -39 66 0 5 -9 12 -19 16 -19 6 -19 7 1 21 11 8 22 23
24 34 3 13 15 22 34 25 23 4 36 0 57 -21 19 -18 34 -25 51 -22z m379 -714 c11
-27 20 -55 19 -63 -5 -54 4 -89 33 -128 19 -26 16 -89 -5 -108 -17 -16 -19
-16 -19 -1 0 10 -4 17 -10 17 -5 0 -10 -4 -10 -10 0 -5 -7 -10 -15 -10 -8 0
-15 7 -15 15 0 9 -10 15 -26 15 -53 0 -67 42 -49 143 5 26 3 44 -8 60 -8 13
-12 35 -10 54 5 29 8 32 34 26 18 -3 29 -1 29 6 0 6 -7 11 -15 11 -8 0 -15 5
-15 10 0 6 14 10 30 10 27 0 33 -6 52 -47z m513 -139 c14 -9 25 -22 25 -29 0
-7 9 -15 21 -18 31 -8 16 -23 -38 -37 -26 -6 -53 -16 -60 -22 -9 -7 -17 -7
-27 2 -10 8 -21 8 -32 2 -12 -7 -35 2 -90 35 -82 50 -94 68 -36 59 20 -3 71 0
112 8 98 19 97 19 125 0z m-918 -106 c59 4 61 3 56 -17 -3 -11 -9 -21 -14 -21
-4 0 -18 -10 -29 -22 -15 -17 -31 -22 -60 -22 -22 1 -37 -2 -35 -6 7 -11 -50
-23 -74 -15 -13 4 -18 12 -15 23 2 9 -1 7 -7 -6 -14 -25 -32 -24 -37 1 -2 10
6 19 21 22 13 4 31 18 38 32 16 30 46 43 74 33 11 -4 48 -5 82 -2z m1380
-1113 c45 -35 100 -88 122 -117 74 -98 106 -131 180 -186 41 -31 89 -71 105
-90 17 -20 36 -40 42 -46 29 -30 46 -67 40 -91 -4 -14 -10 -25 -14 -25 -4 0
-36 34 -71 76 -36 42 -82 87 -104 101 -60 38 -124 100 -183 179 -30 39 -75 89
-101 110 -75 61 -113 105 -113 130 0 13 3 24 8 24 4 0 44 -29 89 -65z m-2014
-206 c-6 -6 -9 -18 -6 -25 3 -8 -1 -14 -8 -14 -7 0 -10 -3 -6 -6 3 -4 -15 -30
-42 -58 -70 -75 -113 -125 -153 -181 -20 -27 -50 -60 -67 -73 l-31 -23 0 25
c0 14 13 35 33 53 17 16 66 73 106 128 77 102 169 200 179 190 3 -3 1 -10 -5
-16z m113 -135 c-9 -16 -93 -109 -188 -208 -181 -187 -218 -230 -218 -254 0
-8 -26 -41 -57 -73 -32 -32 -73 -75 -91 -95 l-32 -38 -22 21 -21 22 36 38 c59
63 94 97 131 126 23 19 39 43 46 68 17 61 130 184 334 364 37 33 73 63 80 67
17 11 18 -6 2 -38z m214 21 c0 -8 9 -19 20 -25 11 -6 20 -17 20 -25 0 -8 6
-18 14 -22 8 -4 30 -22 48 -39 19 -17 51 -37 71 -43 20 -7 37 -18 37 -25 0 -7
17 -21 38 -32 20 -10 50 -31 66 -46 17 -16 36 -28 43 -28 9 0 13 -9 11 -26 -2
-19 2 -27 15 -30 25 -3 47 -23 47 -41 0 -18 -10 -16 -170 33 -207 64 -248 88
-322 186 -35 46 -35 83 -1 136 27 41 63 57 63 27z m1405 -174 c3 -5 1 -12 -5
-16 -6 -4 -8 -11 -4 -16 3 -5 10 -7 15 -4 10 7 12 -6 3 -30 -4 -8 -49 -36
-100 -61 -71 -35 -101 -45 -122 -40 -16 4 -22 3 -14 -2 9 -6 6 -12 -13 -20
-47 -22 -49 -18 -30 51 9 35 47 77 67 77 8 0 23 9 33 20 10 11 28 20 40 20 11
0 30 7 41 15 21 16 80 20 89 6z m-1198 -2922 c87 -50 161 -96 165 -103 14 -22
8 -55 -13 -66 -23 -13 -66 7 -220 99 -46 28 -90 51 -98 51 -8 0 -79 -36 -158
-81 -140 -79 -144 -81 -168 -65 -29 19 -32 47 -7 68 25 23 315 187 329 188 7
0 84 -41 170 -91z"/>
</g>
</svg>
